<?xml version="1.0" encoding="UTF-8"?>
<svg id="Layer_1" data-name="Layer 1" xmlns="http://www.w3.org/2000/svg" viewBox="0 0 860.33 755.12">
  <defs>
    <style>
      .cls-1 {
        fill: #007aff;
      }
    </style>
  </defs>
  <g>
    <path class="cls-1" d="M768.7,237.59c-109.13-107.21-207.21-150.95-338.54-150.95s-229.41,43.73-338.54,150.95l-30.9,30.37L0,206.14l30.9-30.36c62.59-61.49,123.99-105.11,187.71-133.33C283.13,13.89,352.33,0,430.17,0s147.03,13.89,211.55,42.45c63.72,28.22,125.12,71.84,187.71,133.33l30.9,30.36-60.73,61.81-30.9-30.37Z"/>
    <path class="cls-1" d="M430.17,755.12c-77.84,0-147.04-13.89-211.55-42.45-63.71-28.22-125.11-71.83-187.71-133.33l-30.9-30.36,60.73-61.81,30.9,30.37c109.13,107.21,207.21,150.94,338.54,150.94s229.41-43.73,338.54-150.94l30.9-30.37,60.73,61.81-30.9,30.36c-62.6,61.5-124,105.12-187.71,133.33-64.51,28.56-133.71,42.45-211.55,42.45Z"/>
  </g>
  <path class="cls-1" d="M430.22,201.95s-.04,0-.06,0c-96.99,0-175.61,78.63-175.61,175.61s78.63,175.62,175.61,175.62,175.61-78.63,175.61-175.62h-175.56v-175.61Z"/>
</svg>