<?xml version="1.0" encoding="UTF-8"?>
<svg id="Layer_1" data-name="Layer 1" xmlns="http://www.w3.org/2000/svg" viewBox="0 0 1300.17 251.71" width="380" height="74">
  <defs>
    <style>
      .cls-1 {
        fill: #007aff;
      }
    </style>
  </defs>
  <g>
    <g>
      <path class="cls-1" d="M256.23,79.2c-36.38-35.74-69.07-50.32-112.85-50.32s-76.47,14.58-112.85,50.32l-10.3,10.12L0,68.71l10.3-10.12C31.16,38.1,51.63,23.56,72.87,14.15,94.38,4.63,117.44,0,143.39,0s49.01,4.63,70.52,14.15c21.24,9.41,41.71,23.95,62.57,44.44l10.3,10.12-20.24,20.6-10.3-10.12Z"/>
      <path class="cls-1" d="M143.39,251.71c-25.95,0-49.01-4.63-70.52-14.15-21.24-9.41-41.7-23.94-62.57-44.44l-10.3-10.12,20.24-20.6,10.3,10.12c36.38,35.74,69.07,50.31,112.85,50.31s76.47-14.58,112.85-50.31l10.3-10.12,20.24,20.6-10.3,10.12c-20.87,20.5-41.33,35.04-62.57,44.44-21.5,9.52-44.57,14.15-70.52,14.15Z"/>
    </g>
    <path class="cls-1" d="M143.41,67.32s-.01,0-.02,0c-32.33,0-58.54,26.21-58.54,58.54s26.21,58.54,58.54,58.54,58.54-26.21,58.54-58.54h-58.52v-58.54Z"/>
  </g>
  <g>
    <path class="cls-1" d="M360.35,204.54V44.48h30.62l56.18,89.27c1.93,3.01,4.47,7.27,7.63,12.78,3.15,5.52,6.34,11.14,9.56,16.87-.21-6.02-.38-12.01-.48-17.99-.11-5.98-.16-10.54-.16-13.7V44.48h28.47v160.06h-30.72l-50.7-80.35c-2.29-3.58-5.44-8.75-9.45-15.52-4.01-6.77-8.45-14.48-13.32-23.15.36,8.88.57,16.65.64,23.31.07,6.66.11,11.75.11,15.25v80.46h-28.36Z"/>
    <path class="cls-1" d="M565.67,207.12c-11.32,0-21.13-2.54-29.43-7.63-8.31-5.08-14.7-12.08-19.17-21-4.48-8.92-6.71-19.1-6.71-30.56s2.31-21.75,6.93-30.67,11.01-15.93,19.17-21.05c8.16-5.12,17.54-7.68,28.14-7.68s20.41,2.51,28.57,7.52c8.16,5.01,14.5,11.94,19.01,20.79,4.51,8.85,6.77,19.07,6.77,30.67v7.41h-82.07c.36,9.24,3.08,16.69,8.16,22.34,5.08,5.66,12.17,8.49,21.27,8.49,6.8,0,12.42-1.49,16.87-4.46,4.44-2.97,7.45-6.89,9.02-11.76h25.35c-1.43,7.38-4.57,13.89-9.4,19.55-4.83,5.66-10.9,10.08-18.21,13.27s-15.4,4.78-24.28,4.78ZM537.09,136.22h55.86c-.86-8.09-3.78-14.48-8.75-19.17-4.98-4.69-11.37-7.04-19.17-7.04s-14.27,2.35-19.17,7.04c-4.91,4.69-7.83,11.08-8.75,19.17Z"/>
    <path class="cls-1" d="M687.69,91.1v21.81h-23.2v59.08c0,4.08.82,6.89,2.47,8.43,1.65,1.54,4.69,2.31,9.13,2.31h11.6v21.81h-16.33c-11.6,0-20.16-2.33-25.67-6.98-5.52-4.65-8.27-11.85-8.27-21.59V60.16h27.07v30.94h23.2Z"/>
    <path class="cls-1" d="M707.05,204.54V44.48h62.41c11.74,0,21.9,2.08,30.45,6.23,8.56,4.15,15.16,10.06,19.82,17.72,4.65,7.66,6.98,16.72,6.98,27.18s-2.69,20.23-8.06,28.04c-5.37,7.81-12.82,13.64-22.34,17.51l33.41,63.38h-31.26l-30.08-58.22h-32.98v58.22h-28.36ZM735.41,122.9h32.66c9.45,0,16.94-2.45,22.45-7.36,5.51-4.9,8.27-11.55,8.27-19.93s-2.78-14.89-8.33-19.77c-5.55-4.87-13.09-7.3-22.61-7.3h-32.44v54.36Z"/>
    <path class="cls-1" d="M884.33,206.8c-9.88,0-18.51-2.47-25.89-7.41-7.38-4.94-13.09-11.83-17.13-20.68-4.05-8.84-6.07-19.17-6.07-30.99s2.04-21.82,6.12-30.67c4.08-8.84,9.81-15.75,17.19-20.73,7.38-4.98,15.9-7.47,25.57-7.47,7.38,0,14.07,1.5,20.09,4.51s10.78,7.52,14.29,13.54h.43v-15.79h26.53v113.44h-26.53v-17.08h-.32c-3.58,6.45-8.34,11.28-14.29,14.5-5.95,3.22-12.61,4.83-19.98,4.83ZM890.67,184.13c8.88,0,15.99-3.31,21.32-9.94,5.33-6.62,8-15.45,8-26.48s-2.67-19.85-8-26.48c-5.34-6.62-12.44-9.94-21.32-9.94-8.38,0-15.15,3.15-20.3,9.45-5.16,6.3-7.73,15.29-7.73,26.96s2.58,20.75,7.73,27.02c5.16,6.27,11.92,9.4,20.3,9.4Z"/>
    <path class="cls-1" d="M995.69,140.41v64.13h-27.07v-113.44h26.64v17.4c7.88-13.11,19.48-19.66,34.8-19.66,11.89,0,21.61,3.83,29.17,11.49,7.55,7.66,11.33,18.76,11.33,33.3v70.9h-27.18v-66.6c0-8.31-2.01-14.61-6.02-18.91-4.01-4.3-9.63-6.45-16.87-6.45s-13,2.22-17.72,6.66c-4.73,4.44-7.09,11.49-7.09,21.16Z"/>
    <path class="cls-1" d="M1092.72,204.54V44.48h27.07v92.6h.32l44.15-45.98h32.55l-46.08,48.98,48.88,64.45h-32.33l-37.17-48.55-10.31,10.63v37.92h-27.07Z"/>
    <path class="cls-1" d="M1252.04,207.23c-13.82,0-25.37-3.24-34.64-9.72-9.28-6.48-14.34-15.81-15.2-27.98h26.75c.57,5.52,2.79,9.79,6.66,12.84,3.87,3.04,9.2,4.57,16.01,4.57s11.66-1.29,15.42-3.87,5.64-5.87,5.64-9.88c0-3.44-1.4-6.19-4.19-8.27-2.79-2.08-6.55-3.62-11.28-4.62l-19.34-3.97c-22.06-4.58-33.09-15.5-33.09-32.76,0-10.46,4.15-18.89,12.46-25.3,8.31-6.41,19.37-9.61,33.19-9.61s24.94,3.38,33.57,10.15c8.63,6.77,13.09,15.99,13.37,27.66h-25.46c-.14-5.08-2.11-9.27-5.91-12.57-3.8-3.29-8.77-4.94-14.93-4.94s-10.63,1.33-14.07,3.97c-3.44,2.65-5.16,5.91-5.16,9.78,0,3.37,1.32,6.11,3.97,8.22,2.65,2.11,6.34,3.71,11.06,4.78l20.41,4.19c11.24,2.36,19.53,6.09,24.87,11.17,5.33,5.09,8,11.78,8,20.09,0,7.38-2.06,13.77-6.18,19.17-4.12,5.41-9.79,9.58-17.03,12.51-7.23,2.94-15.54,4.4-24.92,4.4Z"/>
  </g>
</svg>