<svg width="53" height="24" viewBox="0 0 53 24" fill="none" xmlns="http://www.w3.org/2000/svg">
<g opacity="0.5">
<path d="M6.86914 3.55268C7.55837 3.0937 8.48983 3.27961 8.94922 3.96869C9.40755 4.65712 9.22178 5.58741 8.53467 6.0473L8.5376 6.04584C8.52703 6.05347 8.50572 6.07005 8.47314 6.09564C8.40779 6.14699 8.30139 6.23382 8.16846 6.35932C7.90168 6.61128 7.52786 7.01413 7.14893 7.58246C6.54859 8.48296 5.91787 9.82528 5.68994 11.7001H8.90088C10.3911 11.7006 11.6002 12.9096 11.6006 14.3998V18.0004C11.6004 19.4908 10.3912 20.6997 8.90088 20.7001H5.30029C3.8097 20.7 2.60074 19.491 2.60059 18.0004V13.2001C2.6007 9.87997 3.60266 7.49365 4.65283 5.9184C5.17343 5.13757 5.69942 4.56505 6.10742 4.17963C6.31152 3.98688 6.48729 3.839 6.61865 3.73578C6.68418 3.6843 6.73918 3.64312 6.78125 3.61273C6.80224 3.59758 6.82099 3.58468 6.83545 3.57465C6.84249 3.56976 6.8491 3.56513 6.85449 3.56146C6.85696 3.55982 6.85972 3.55848 6.86182 3.55707L6.86621 3.55414C6.87338 3.56358 6.93767 3.65567 7.51367 4.51947L6.86914 3.55268Z" fill="#D1D1D1" style="fill:#D1D1D1;fill:color(display-p3 0.8196 0.8196 0.8196);fill-opacity:1;"/>
<path d="M17.668 3.55268C18.3572 3.09349 19.2886 3.27955 19.748 3.96869C20.2069 4.65726 20.021 5.58735 19.3335 6.0473L19.3364 6.04584C19.3256 6.05366 19.3041 6.07041 19.272 6.09564C19.2066 6.14706 19.0999 6.2341 18.9673 6.35932C18.7005 6.61131 18.3265 7.01447 17.9478 7.58246C17.3475 8.48296 16.7181 9.82566 16.4902 11.7001H19.6997C21.1902 11.7003 22.3991 12.9094 22.3994 14.3998V18.0004C22.3993 19.491 21.1903 20.7 19.6997 20.7001H16.0991C14.6088 20.6997 13.3996 19.4908 13.3994 18.0004V13.2001C13.3995 9.88034 14.4016 7.49366 15.4517 5.9184C15.9721 5.13787 16.4983 4.56505 16.9062 4.17963C17.1101 3.98708 17.2862 3.839 17.4175 3.73578C17.4828 3.68446 17.538 3.64311 17.5801 3.61273C17.6009 3.59771 17.6199 3.58465 17.6343 3.57465C17.6412 3.56987 17.648 3.5651 17.6533 3.56146C17.6556 3.55989 17.6586 3.55836 17.6606 3.55707L17.665 3.55414C17.6701 3.56041 17.7237 3.63653 18.3125 4.51947L17.668 3.55268Z" fill="#D1D1D1" style="fill:#D1D1D1;fill:color(display-p3 0.8196 0.8196 0.8196);fill-opacity:1;"/>
<path d="M36.9009 3.30078C38.3916 3.30124 39.6004 4.50973 39.6006 6.00049V9.59229L39.5991 10.3804C39.5819 12.2382 39.4378 14.1975 38.7729 15.9292C37.9711 18.0173 36.4398 19.7098 33.7866 20.6196C33.0033 20.8882 32.1499 20.471 31.8809 19.688C31.6121 18.9044 32.0303 18.0509 32.814 17.7822L33.1377 17.6621C34.7041 17.0412 35.5075 16.0636 35.9722 14.854C36.2598 14.1049 36.422 13.2508 36.5098 12.3008H33.3003C31.8095 12.3006 30.6009 11.0918 30.6006 9.60107V6.00049C30.6007 4.50955 31.8094 3.30094 33.3003 3.30078H36.9009Z" fill="#D1D1D1" style="fill:#D1D1D1;fill:color(display-p3 0.8196 0.8196 0.8196);fill-opacity:1;"/>
<path d="M47.6997 3.30078C49.1906 3.30094 50.3993 4.50955 50.3994 6.00049V9.56592L50.4009 9.59229L50.3994 10.3804C50.3822 12.2382 50.2381 14.1975 49.5732 15.9292C48.7714 18.0172 47.24 19.7098 44.5869 20.6196C43.8036 20.8882 42.9502 20.471 42.6812 19.688C42.4124 18.9044 42.8306 18.0509 43.6143 17.7822L43.938 17.6621C45.5043 17.0412 46.3079 16.0636 46.7725 14.854C47.0601 14.1049 47.2208 13.2508 47.3086 12.3008H44.0991C42.6086 12.3003 41.3998 11.0917 41.3994 9.60107V6.00049C41.3996 4.50973 42.6084 3.30124 44.0991 3.30078H47.6997Z" fill="#D1D1D1" style="fill:#D1D1D1;fill:color(display-p3 0.8196 0.8196 0.8196);fill-opacity:1;"/>
</g>
</svg>
