<svg width="16" height="23" viewBox="0 0 16 23" fill="none" xmlns="http://www.w3.org/2000/svg">
<path d="M8.80716 0.909893C7.91828 1.09335 5.15101 4.53982 3.87848 6.24013C3.83436 5.69659 3.55061 4.49207 2.92198 3.86151C2.14895 3.0861 1.54869 3.18891 1.35678 3.72C1.16488 4.25109 0.726697 12.1424 2.56334 13.0134C2.56334 13.0134 -0.152178 17.4859 0.393828 23.0903L9.43194 23.5559C7.95844 20.9489 7.78913 18.1819 7.78913 16.4751C7.78913 14.4445 8.58016 15.0108 9.34718 14.5902C10.1413 14.1546 10.7332 13.4212 11.1279 12.6086C11.8471 11.128 13.3289 8.65429 13.8093 7.99296C14.2898 7.33163 14.8869 6.61328 14.1665 5.93258C13.613 5.40959 12.9006 5.90838 12.5774 6.25849C13.2809 5.46791 13.9384 4.52181 13.5425 3.98513C13.0849 3.36483 12.3665 3.64552 12.041 3.92094C12.9324 3.09186 13.1994 1.89275 12.1515 1.65826C11.2966 1.46696 8.98122 3.69173 7.93039 4.82803C8.52179 4.01144 9.74121 2.30748 9.88768 2.02441C10.1182 1.57884 9.91825 0.680578 8.80716 0.909893Z" fill="white" style="fill:white;fill-opacity:1;"/>
<path d="M4.71533 7.16797C5.17357 7.45119 5.96044 8.42126 5.44195 10.0357" stroke="black" style="stroke:black;stroke-opacity:1;" stroke-width="0.479206" stroke-linecap="round" stroke-linejoin="round"/>
<path d="M12.041 3.92054C12.9324 3.09146 13.1994 1.89235 12.1515 1.65786C11.2966 1.46656 8.98122 3.69133 7.93039 4.82763C8.52179 4.01104 9.60494 2.27429 9.75141 1.99122C9.98195 1.54565 9.78198 0.647385 8.67089 0.876701C7.78202 1.06015 5.15101 4.53942 3.87848 6.23973C3.83436 5.6962 3.55061 4.49168 2.92198 3.86111C2.14895 3.0857 1.54869 3.18851 1.35678 3.7196C1.16488 4.2507 0.726697 12.142 2.56334 13.013C2.56334 13.013 -0.152178 17.4855 0.393828 23.0899M12.041 3.92054C12.0234 3.93692 12.0056 3.95316 11.9875 3.96923M12.041 3.92054C12.0218 3.93685 12.0039 3.95315 11.9875 3.96923M12.041 3.92054C12.3665 3.64513 13.0849 3.36443 13.5425 3.98473C13.9384 4.52141 13.2809 5.46751 12.5774 6.25809M11.9875 3.96923C11.2405 4.63325 10.4679 5.55727 10.0573 6.06107M12.5774 6.25809C12.5647 6.2723 12.5521 6.28646 12.5394 6.30057M12.5774 6.25809C12.564 6.27253 12.5514 6.28672 12.5394 6.30057M12.5774 6.25809C12.9006 5.90799 13.613 5.40919 14.1665 5.93218C14.8869 6.61288 14.2898 7.33123 13.8093 7.99256C13.3289 8.65389 11.8471 11.1276 11.1279 12.6082C10.5262 13.8469 9.53998 14.8978 8.00414 14.9938C7.43295 15.0295 6.86402 14.571 6.77749 14.0052C6.73037 13.6971 6.79494 13.421 7.19567 13.3324C8.14913 13.1217 8.08327 14.1993 7.93039 14.9977C7.75985 15.8882 7.35541 19.8816 9.43194 23.5555M12.5394 6.30057C12.0876 6.80365 11.5625 7.31584 11.3531 7.53394" stroke="black" style="stroke:black;stroke-opacity:1;" stroke-width="0.479206" stroke-linecap="round" stroke-linejoin="round"/>
<path d="M6.76843 4.66895C9.08792 5.18798 10.4565 5.98137 11.5404 8.23598" stroke="black" style="stroke:black;stroke-opacity:1;" stroke-width="0.479206" stroke-linecap="round" stroke-linejoin="round"/>
<path d="M14.3153 9.81836C14.8818 10.2406 15.1506 10.8673 15.1545 12.022" stroke="black" style="stroke:black;stroke-opacity:1;" stroke-width="0.479206" stroke-linecap="round" stroke-linejoin="round"/>
<path d="M13.2782 11.2031C14.1232 11.9272 14.2727 12.9467 14.1906 14.4389" stroke="black" style="stroke:black;stroke-opacity:1;" stroke-width="0.479206" stroke-linecap="round" stroke-linejoin="round"/>
</svg>
