<svg width="23" height="22" viewBox="0 0 23 22" fill="none" xmlns="http://www.w3.org/2000/svg">
<path d="M0.5 8C0.5 3.58172 4.08172 0 8.5 0H14.5C18.9183 0 22.5 3.58172 22.5 8V14C22.5 18.4183 18.9183 22 14.5 22H8.5C4.08172 22 0.5 18.4183 0.5 14V8Z" fill="#C2410C" style="fill:#C2410C;fill:color(display-p3 0.7608 0.2549 0.0471);fill-opacity:1;"/>
<path fill-rule="evenodd" clip-rule="evenodd" d="M11.4999 5.40039C14.8166 5.40039 16.8071 8.30701 17.5087 9.55664C18.031 10.4254 18.0312 11.5741 17.497 12.4629C16.8074 13.6917 14.8167 16.5986 11.4999 16.5986C7.97591 16.5986 6.02053 13.4432 5.49013 12.4424C4.9686 11.5561 4.97261 10.4185 5.50283 9.53613C6.19243 8.30734 8.18311 5.4004 11.4999 5.40039ZM11.4999 8.59961C10.1743 8.59962 9.09951 9.67441 9.09951 11C9.09956 12.3255 10.1743 13.4004 11.4999 13.4004C12.8255 13.4004 13.9002 12.3256 13.9003 11C13.9003 9.6744 12.8255 8.59961 11.4999 8.59961Z" fill="white" style="fill:white;fill-opacity:1;"/>
</svg>
