<svg width="19" height="18" viewBox="0 0 19 18" fill="none" xmlns="http://www.w3.org/2000/svg">
<path fill-rule="evenodd" clip-rule="evenodd" d="M9.49986 10.5752C10.7164 10.5754 11.7593 11.3179 12.2003 12.3748H15.7994C16.4207 12.3748 16.9244 12.8784 16.9244 13.4998C16.9244 14.1211 16.4207 14.6248 15.7994 14.6248H15.1249V15.2993C15.1249 15.9206 14.6212 16.4243 13.9999 16.4243C13.3785 16.4243 12.8749 15.9206 12.8749 15.2993V14.6248H12.1992C11.758 15.6813 10.7161 16.4252 9.49986 16.4254C7.88481 16.4252 6.5756 15.1148 6.5753 13.4998C6.57554 11.8847 7.88478 10.5754 9.49986 10.5752ZM9.49986 12.8252C9.12742 12.8254 8.82554 13.1273 8.8253 13.4998C8.8256 13.8721 9.12745 14.1752 9.49986 14.1754C9.87008 14.1752 10.1706 13.8757 10.1744 13.5063V13.4921C10.1703 13.1229 9.86993 12.8254 9.49986 12.8252Z" fill="#5D5D5D" style="fill:#5D5D5D;fill:color(display-p3 0.3647 0.3647 0.3647);fill-opacity:1;"/>
<path d="M4.81639 10.7147C5.35051 10.3977 6.04052 10.573 6.35777 11.1069C6.67474 11.6409 6.49914 12.3309 5.96556 12.6483C5.22517 13.0879 4.60344 13.7025 4.1627 14.4336C3.84188 14.9654 3.15 15.1365 2.61802 14.8159C2.08608 14.4951 1.91497 13.8033 2.2357 13.2712C2.8713 12.217 3.7624 11.3406 4.81639 10.7147Z" fill="#5D5D5D" style="fill:#5D5D5D;fill:color(display-p3 0.3647 0.3647 0.3647);fill-opacity:1;"/>
<path fill-rule="evenodd" clip-rule="evenodd" d="M8.60008 1.5752C10.7124 1.57543 12.4244 3.28829 12.4244 5.40063C12.4239 7.51252 10.712 9.22474 8.60008 9.22498C6.48805 9.22483 4.77517 7.51258 4.77464 5.40063C4.77464 3.28824 6.48772 1.57534 8.60008 1.5752ZM8.60008 3.8252C7.73036 3.82534 7.02464 4.53088 7.02464 5.40063C7.02517 6.26994 7.73069 6.97483 8.60008 6.97498C9.4694 6.97474 10.1739 6.26988 10.1744 5.40063C10.1744 4.53093 9.46973 3.82543 8.60008 3.8252Z" fill="#5D5D5D" style="fill:#5D5D5D;fill:color(display-p3 0.3647 0.3647 0.3647);fill-opacity:1;"/>
</svg>
